<svg width="32" height="33" viewBox="0 0 32 33" fill="none" xmlns="http://www.w3.org/2000/svg">
<path d="M8 23.375C8 20.625 13.3333 19.1125 16 19.1125C18.6667 19.1125 24 20.625 24 23.375V24.75H8M20 12.375C20 13.469 19.5786 14.5182 18.8284 15.2918C18.0783 16.0654 17.0609 16.5 16 16.5C14.9391 16.5 13.9217 16.0654 13.1716 15.2918C12.4214 14.5182 12 13.469 12 12.375C12 11.281 12.4214 10.2318 13.1716 9.45818C13.9217 8.6846 14.9391 8.25 16 8.25C17.0609 8.25 18.0783 8.6846 18.8284 9.45818C19.5786 10.2318 20 11.281 20 12.375ZM4 6.875V26.125C4 26.8543 4.28095 27.5538 4.78105 28.0695C5.28115 28.5853 5.95942 28.875 6.66667 28.875H25.3333C26.0406 28.875 26.7189 28.5853 27.219 28.0695C27.719 27.5538 28 26.8543 28 26.125V6.875C28 6.14565 27.719 5.44618 27.219 4.93046C26.7189 4.41473 26.0406 4.125 25.3333 4.125H6.66667C5.18667 4.125 4 5.3625 4 6.875Z" fill="white"/>
</svg>
